<?xml version="1.0" encoding="UTF-8"?>
<svg xmlns="http://www.w3.org/2000/svg" xmlns:xlink="http://www.w3.org/1999/xlink" width="139px" height="50px" viewBox="0 0 139 50" version="1.1">
<defs>
<radialGradient id="radial0" gradientUnits="userSpaceOnUse" cx="103.83" cy="141.26" fx="103.83" fy="141.26" r="103.81" >
<stop offset="0.03" style="stop-color:rgb(100%,83.921569%,0%);stop-opacity:1;"/>
<stop offset="1" style="stop-color:rgb(100%,56.470588%,0%);stop-opacity:1;"/>
</radialGradient>
<radialGradient id="radial1" gradientUnits="userSpaceOnUse" cx="104" cy="141.27" fx="104" fy="141.27" r="104.44" >
<stop offset="0.35" style="stop-color:rgb(100%,83.921569%,0%);stop-opacity:1;"/>
<stop offset="1" style="stop-color:rgb(100%,56.470588%,0%);stop-opacity:1;"/>
</radialGradient>
<radialGradient id="radial2" gradientUnits="userSpaceOnUse" cx="82.29" cy="110.81" fx="82.29" fy="110.81" r="31.87" gradientTransform="matrix(0.202509,0,0,0.203136,0.0182669,0)">
<stop offset="0.03" style="stop-color:rgb(92.941176%,63.921569%,30.588235%);stop-opacity:1;"/>
<stop offset="1" style="stop-color:rgb(87.843137%,36.470588%,22.745098%);stop-opacity:1;"/>
</radialGradient>
<radialGradient id="radial3" gradientUnits="userSpaceOnUse" cx="73.3" cy="147.62" fx="73.3" fy="147.62" r="11.31" gradientTransform="matrix(0.202509,0,0,0.203136,0.0182669,0)">
<stop offset="0.03" style="stop-color:rgb(92.941176%,63.921569%,30.588235%);stop-opacity:1;"/>
<stop offset="1" style="stop-color:rgb(87.843137%,36.470588%,22.745098%);stop-opacity:1;"/>
</radialGradient>
<radialGradient id="radial4" gradientUnits="userSpaceOnUse" cx="132.3" cy="130.71" fx="132.3" fy="130.71" r="34.5" gradientTransform="matrix(0.202509,0,0,0.203136,0.0182669,0)">
<stop offset="0.03" style="stop-color:rgb(92.941176%,63.921569%,30.588235%);stop-opacity:1;"/>
<stop offset="1" style="stop-color:rgb(87.843137%,36.470588%,22.745098%);stop-opacity:1;"/>
</radialGradient>
<radialGradient id="radial5" gradientUnits="userSpaceOnUse" cx="106.93" cy="104.84" fx="106.93" fy="104.84" r="103.79" >
<stop offset="0.35" style="stop-color:rgb(100%,83.921569%,0%);stop-opacity:1;"/>
<stop offset="1" style="stop-color:rgb(100%,56.470588%,0%);stop-opacity:1;"/>
</radialGradient>
<radialGradient id="radial6" gradientUnits="userSpaceOnUse" cx="106.76" cy="104.83" fx="106.76" fy="104.83" r="104.42" >
<stop offset="0.03" style="stop-color:rgb(100%,83.921569%,0%);stop-opacity:1;"/>
<stop offset="1" style="stop-color:rgb(100%,56.470588%,0%);stop-opacity:1;"/>
</radialGradient>
</defs>
<g id="surface1">
<path style="fill-rule:nonzero;fill:rgb(100%,100%,100%);fill-opacity:1;stroke-width:1;stroke-linecap:butt;stroke-linejoin:miter;stroke:rgb(96.078431%,96.862745%,98.039216%);stroke-opacity:1;stroke-miterlimit:10;" d="M 247.545814 149.683887 C 246.928556 149.703117 246.330588 149.472361 245.906224 149.010848 C 245.501148 148.587795 245.269677 148.010905 245.269677 147.414784 L 245.269677 88.264266 C 245.250387 87.668145 245.481859 87.072025 245.906224 86.648972 C 246.349878 86.206689 246.928556 85.975933 247.545814 85.995162 L 275.303115 85.995162 C 279.681786 85.841325 284.041167 86.591283 288.130499 88.187347 C 291.197497 89.418047 293.801552 91.610231 295.556879 94.417766 C 297.215758 97.340678 298.064487 100.648184 298.00662 103.99415 C 298.045198 105.994037 297.620834 107.974695 296.772104 109.782286 C 295.421854 112.58982 293.203584 114.878153 290.445214 116.28192 C 292.914245 117.53185 295.036068 119.3779 296.598501 121.666233 C 298.392406 124.204552 299.337581 127.262072 299.260424 130.396511 C 299.37616 134.011692 298.450273 137.607644 296.598501 140.722853 C 294.708149 143.684225 291.988358 145.991787 288.767045 147.357095 C 284.774161 149.010848 280.472647 149.799266 276.151844 149.683887 Z M 261.646291 111.282202 L 273.470632 111.282202 C 275.534587 111.436039 277.579252 110.705311 279.083817 109.282314 C 280.318333 107.974695 280.993458 106.224794 280.93559 104.417203 C 281.012747 102.648072 280.337622 100.9174 279.083817 99.648241 C 277.540674 98.282933 275.515297 97.609894 273.470632 97.763731 L 261.646291 97.763731 Z M 261.646291 137.85763 L 274.300071 137.85763 C 276.518341 138.030697 278.678742 137.184591 280.202597 135.588527 C 282.401577 133.357883 282.980256 130.011917 281.668584 127.165923 C 280.356911 124.339159 277.424938 122.608487 274.300071 122.858473 L 261.646291 122.858473 Z M 261.646291 137.85763 " transform="matrix(0.202509,0,0,0.203136,0.0182669,0)"/>
<path style="fill-rule:nonzero;fill:rgb(100%,100%,100%);fill-opacity:1;stroke-width:1;stroke-linecap:butt;stroke-linejoin:miter;stroke:rgb(96.078431%,96.862745%,98.039216%);stroke-opacity:1;stroke-miterlimit:10;" d="M 312.705065 95.552317 C 312.087808 95.571547 311.489839 95.340791 311.065475 94.917737 C 310.621821 94.475455 310.390349 93.879334 310.428928 93.263984 L 310.428928 85.072137 C 310.428928 84.495247 310.64111 83.918356 311.065475 83.495303 C 311.489839 83.033791 312.087808 82.783805 312.705065 82.803034 L 323.622808 82.803034 C 324.857323 82.841494 325.860367 83.841437 325.898946 85.072137 L 325.898946 93.263984 C 325.918235 93.898564 325.667474 94.494684 325.204531 94.917737 C 324.780166 95.321561 324.220777 95.552317 323.622808 95.552317 Z M 312.782222 149.683887 C 312.164965 149.722347 311.566997 149.472361 311.142632 149.010848 C 310.737557 148.587795 310.506085 148.010905 310.525374 147.414784 L 310.525374 104.647959 C 310.486796 104.032609 310.718267 103.436489 311.161921 103.013436 C 311.586286 102.571153 312.184254 102.340397 312.782222 102.378856 L 323.526362 102.378856 C 324.143619 102.359627 324.741588 102.590383 325.165952 103.013436 C 325.590317 103.455719 325.821788 104.032609 325.802499 104.647959 L 325.802499 147.414784 C 325.802499 148.010905 325.590317 148.587795 325.165952 149.010848 C 324.741588 149.472361 324.143619 149.703117 323.526362 149.683887 Z M 312.782222 149.683887 " transform="matrix(0.202509,0,0,0.203136,0.0182669,0)"/>
<path style="fill-rule:nonzero;fill:rgb(100%,100%,100%);fill-opacity:1;stroke-width:1;stroke-linecap:butt;stroke-linejoin:miter;stroke:rgb(96.078431%,96.862745%,98.039216%);stroke-opacity:1;stroke-miterlimit:10;" d="M 354.65929 149.683887 C 354.022743 149.722347 353.424775 149.453131 353.00041 148.991619 C 352.595335 148.568566 352.363863 148.010905 352.363863 147.414784 L 352.363863 100.28282 L 336.160852 100.28282 C 335.543595 100.30205 334.945627 100.052064 334.521262 99.590552 C 334.116187 99.167498 333.884715 98.590608 333.884715 97.994487 L 333.884715 88.264266 C 333.865426 87.648916 334.096897 87.072025 334.521262 86.629742 C 334.964916 86.206689 335.562884 85.975933 336.160852 85.995162 L 385.174961 85.995162 C 385.772929 85.975933 386.370897 86.206689 386.795262 86.629742 C 387.238916 87.072025 387.470387 87.668145 387.431809 88.264266 L 387.431809 97.994487 C 387.451098 98.590608 387.219626 99.167498 386.795262 99.590552 C 386.370897 100.052064 385.792218 100.30205 385.174961 100.28282 L 368.97195 100.28282 L 368.97195 147.414784 C 368.97195 148.010905 368.740478 148.587795 368.335403 149.010848 C 367.911038 149.472361 367.31307 149.722347 366.695812 149.683887 Z M 354.65929 149.683887 " transform="matrix(0.202509,0,0,0.203136,0.0182669,0)"/>
<path style="fill-rule:nonzero;fill:rgb(100%,100%,100%);fill-opacity:1;stroke-width:1;stroke-linecap:butt;stroke-linejoin:miter;stroke:rgb(96.078431%,96.862745%,98.039216%);stroke-opacity:1;stroke-miterlimit:10;" d="M 393.874434 149.683887 C 393.257177 149.722347 392.659208 149.472361 392.234844 149.010848 C 391.810479 148.587795 391.598297 148.010905 391.598297 147.414784 L 391.598297 104.647959 C 391.598297 104.051839 391.810479 103.494178 392.234844 103.051895 C 392.659208 102.609612 393.257177 102.359627 393.874434 102.378856 L 404.348524 102.378856 C 404.965781 102.359627 405.583039 102.609612 406.026693 103.051895 C 406.451057 103.474948 406.701818 104.051839 406.701818 104.647959 L 406.701818 108.28237 C 408.264251 106.417091 410.251049 104.917175 412.488608 103.917231 C 414.89977 102.859598 417.523115 102.321167 420.165748 102.378856 L 424.177923 102.378856 C 424.775891 102.340397 425.373859 102.571153 425.798224 103.013436 C 426.241878 103.455719 426.473349 104.032609 426.434771 104.647959 L 426.434771 113.993587 C 426.45406 114.589708 426.222588 115.166598 425.798224 115.589652 C 425.373859 116.051164 424.79518 116.30115 424.177923 116.28192 L 415.343424 116.28192 C 413.202312 116.051164 411.080489 116.801122 409.556634 118.320267 C 408.03278 119.839412 407.280497 121.954678 407.511969 124.108403 L 407.511969 147.395555 C 407.511969 147.991675 407.261208 148.568566 406.836843 148.991619 C 406.393189 149.433902 405.775932 149.683887 405.158674 149.664658 Z M 393.874434 149.683887 " transform="matrix(0.202509,0,0,0.203136,0.0182669,0)"/>
<path style="fill-rule:nonzero;fill:rgb(100%,100%,100%);fill-opacity:1;stroke-width:1;stroke-linecap:butt;stroke-linejoin:miter;stroke:rgb(96.078431%,96.862745%,98.039216%);stroke-opacity:1;stroke-miterlimit:10;" d="M 447.923049 150.606912 C 444.894629 150.645372 441.904788 150.010792 439.146418 148.741633 C 436.696678 147.607081 434.594144 145.876409 432.993132 143.684225 C 431.507856 141.588189 430.697706 139.0691 430.736284 136.492322 C 430.620548 132.415628 432.607346 128.550461 436.002263 126.262128 C 439.512915 123.743039 444.180925 122.031597 450.006294 121.127802 L 461.38698 119.39713 L 461.38698 118.12797 C 461.502716 116.339609 461.020483 114.589708 460.01744 113.128252 C 459.110843 111.97447 457.432674 111.39758 455.002222 111.39758 C 453.555525 111.320661 452.128117 111.666795 450.855023 112.397523 C 449.794111 113.070562 448.945382 114.012817 448.366703 115.128139 C 447.865181 115.897327 446.997163 116.339609 446.090566 116.30115 L 435.886527 116.30115 C 435.307848 116.339609 434.748458 116.128083 434.343383 115.724259 C 433.996176 115.339666 433.822572 114.820464 433.88044 114.301262 C 433.976886 112.955184 434.381962 111.666795 435.114955 110.532244 C 436.117999 108.89772 437.391092 107.474723 438.895658 106.301712 C 440.863166 104.763337 443.081435 103.590327 445.454019 102.840369 C 448.598175 101.859655 451.896645 101.398142 455.195115 101.475061 C 458.570742 101.398142 461.94637 101.859655 465.186972 102.840369 C 467.71387 103.590327 470.047875 104.897945 472.015384 106.667077 C 473.732131 108.243911 475.063093 110.224569 475.873243 112.435983 C 476.721972 114.782005 477.146337 117.262634 477.107758 119.762494 L 477.107758 147.434014 C 477.088469 148.683944 476.085426 149.683887 474.831621 149.703117 L 464.318953 149.703117 C 463.682406 149.722347 463.084438 149.472361 462.679363 149.010848 C 462.254998 148.587795 462.023527 148.030134 462.023527 147.434014 L 462.023527 144.241886 C 461.155508 145.472586 460.094597 146.549448 458.840792 147.434014 C 457.413384 148.453187 455.831662 149.222375 454.153493 149.741577 C 452.147406 150.356927 450.044872 150.645372 447.923049 150.606912 Z M 452.205274 140.222881 C 453.864153 140.261341 455.503744 139.857517 456.98902 139.08833 C 458.455006 138.280683 459.631654 137.049983 460.345358 135.530837 C 461.232666 133.665558 461.637741 131.607981 461.579873 129.531175 L 461.579873 128.262016 L 453.844864 129.627323 C 451.626595 129.877309 449.485483 130.646497 447.614421 131.857967 C 446.399195 132.627155 445.666201 133.934773 445.608334 135.377 C 445.589044 136.319255 445.897673 137.261509 446.514931 137.992237 C 447.170767 138.761425 448.000207 139.338316 448.926093 139.68445 C 449.967715 140.069044 451.086494 140.261341 452.205274 140.222881 Z M 452.205274 140.222881 " transform="matrix(0.202509,0,0,0.203136,0.0182669,0)"/>
<path style="fill-rule:nonzero;fill:rgb(100%,100%,100%);fill-opacity:1;stroke-width:1;stroke-linecap:butt;stroke-linejoin:miter;stroke:rgb(96.078431%,96.862745%,98.039216%);stroke-opacity:1;stroke-miterlimit:10;" d="M 506.716832 150.606912 C 504.01633 150.645372 501.354407 150.16463 498.846798 149.183916 C 496.551372 148.28012 494.487417 146.857123 492.847826 145.011073 C 491.111789 143.049645 489.780828 140.761313 488.970677 138.261453 C 488.006212 135.338541 487.485401 132.30025 487.427533 129.2235 C 487.350376 128.01203 487.331087 126.935167 487.331087 125.992912 C 487.331087 125.050658 487.331087 123.993025 487.427533 122.762325 C 487.50469 119.781723 488.044791 116.820352 489.009256 113.993587 C 489.819406 111.532187 491.111789 109.224625 492.828537 107.263197 C 494.468127 105.397917 496.532082 103.936461 498.827509 102.974977 C 501.335118 101.955803 504.01633 101.436602 506.736121 101.475061 C 509.417334 101.417372 512.079257 101.917344 514.567577 102.974977 C 516.631532 103.917231 518.521883 105.22485 520.103605 106.859373 L 520.103605 87.36047 C 520.084316 86.74512 520.315788 86.149 520.740152 85.725947 C 521.183806 85.283664 521.762485 85.052908 522.379743 85.072137 L 533.490379 85.072137 C 534.088347 85.072137 534.647737 85.302894 535.072101 85.725947 C 535.535044 86.149 535.785805 86.74512 535.766516 87.36047 L 535.766516 147.414784 C 535.727937 148.664714 534.724894 149.664658 533.490379 149.683887 L 523.170604 149.683887 C 522.572636 149.703117 521.974667 149.472361 521.550303 149.010848 C 521.125938 148.587795 520.894467 148.010905 520.913756 147.414784 L 520.913756 144.511102 C 519.351323 146.337922 517.441682 147.818608 515.261991 148.876241 C 512.580779 150.106941 509.668095 150.703061 506.716832 150.606912 Z M 511.71276 138.415291 C 514.953363 138.665277 517.981782 136.723078 519.119851 133.684787 C 519.717819 132.242561 520.065027 130.684956 520.122895 129.127352 C 520.180762 127.915881 520.219341 126.7621 520.219341 125.666008 C 520.219341 124.589145 520.219341 123.454594 520.122895 122.300812 C 520.065027 120.839356 519.737109 119.39713 519.119851 118.070281 C 518.521883 116.781892 517.576707 115.6858 516.380771 114.897383 C 513.468087 113.2244 509.880277 113.2244 506.967593 114.897383 C 505.771656 115.743489 504.884349 116.954959 504.421405 118.358727 C 503.881305 119.916331 503.572676 121.531625 503.47623 123.166148 C 503.283337 125.050658 503.283337 126.935167 503.47623 128.800447 C 503.572676 130.4542 503.881305 132.088723 504.421405 133.646328 C 504.884349 135.030866 505.790946 136.242336 506.967593 137.107672 C 508.375712 138.030697 510.034591 138.492209 511.71276 138.415291 Z M 511.71276 138.415291 " transform="matrix(0.202509,0,0,0.203136,0.0182669,0)"/>
<path style="fill-rule:nonzero;fill:rgb(100%,100%,100%);fill-opacity:1;stroke-width:1;stroke-linecap:butt;stroke-linejoin:miter;stroke:rgb(96.078431%,96.862745%,98.039216%);stroke-opacity:1;stroke-miterlimit:10;" d="M 550.291358 95.552317 C 549.6741 95.590777 549.076132 95.36002 548.651767 94.917737 C 548.208114 94.494684 547.976642 93.879334 547.995931 93.263984 L 547.995931 85.072137 C 547.995931 84.495247 548.227403 83.918356 548.632478 83.495303 C 549.056843 83.033791 549.654811 82.783805 550.272069 82.803034 L 561.189812 82.803034 C 562.424327 82.841494 563.42737 83.841437 563.465949 85.072137 L 563.465949 93.263984 C 563.485238 93.898564 563.234477 94.494684 562.771534 94.917737 C 562.366459 95.321561 561.78778 95.552317 561.189812 95.552317 Z M 550.387804 149.683887 C 549.770547 149.722347 549.172578 149.472361 548.748214 149.010848 C 548.343139 148.587795 548.111667 148.010905 548.111667 147.414784 L 548.111667 104.647959 C 548.092378 104.032609 548.323849 103.436489 548.748214 103.013436 C 549.191868 102.571153 549.770547 102.340397 550.387804 102.378856 L 561.131944 102.378856 C 561.749201 102.340397 562.32788 102.571153 562.771534 103.013436 C 563.195899 103.436489 563.42737 104.032609 563.408081 104.647959 L 563.408081 147.414784 C 563.408081 148.010905 563.176609 148.587795 562.771534 149.010848 C 562.34717 149.472361 561.749201 149.722347 561.131944 149.683887 Z M 550.387804 149.683887 " transform="matrix(0.202509,0,0,0.203136,0.0182669,0)"/>
<path style="fill-rule:nonzero;fill:rgb(100%,100%,100%);fill-opacity:1;stroke-width:1;stroke-linecap:butt;stroke-linejoin:miter;stroke:rgb(96.078431%,96.862745%,98.039216%);stroke-opacity:1;stroke-miterlimit:10;" d="M 580.884186 149.683887 C 580.266928 149.722347 579.66896 149.472361 579.244595 149.010848 C 578.820231 148.587795 578.588759 148.010905 578.608048 147.414784 L 578.608048 104.647959 C 578.56947 104.032609 578.800941 103.436489 579.244595 103.013436 C 579.66896 102.590383 580.266928 102.340397 580.884186 102.378856 L 591.338986 102.378856 C 591.956243 102.359627 592.554211 102.590383 592.997865 102.994206 C 593.460808 103.417259 593.69228 104.01338 593.672991 104.647959 L 593.672991 108.109303 C 595.35116 106.109416 597.415115 104.474892 599.768409 103.35957 C 602.584647 102.032722 605.670935 101.378912 608.776512 101.455831 C 612.036403 101.378912 615.257716 102.205789 618.093243 103.821083 C 620.851613 105.455606 623.069882 107.859317 624.478001 110.74377 C 626.13688 114.262803 626.947031 118.108741 626.831295 121.993137 L 626.831295 147.395555 C 626.831295 147.991675 626.599824 148.549336 626.194748 148.972389 C 625.770384 149.433902 625.172416 149.683887 624.555158 149.664658 L 613.097315 149.664658 C 611.84351 149.626198 610.840467 148.626255 610.821177 147.395555 L 610.821177 122.589258 C 610.975492 120.204777 610.242498 117.858755 608.776512 115.974245 C 607.214078 114.358952 605.015098 113.512845 602.77754 113.666683 C 600.539981 113.551305 598.341001 114.378181 596.778568 115.974245 C 595.274002 117.51262 594.541009 119.724034 594.541009 122.589258 L 594.541009 147.414784 C 594.502431 148.664714 593.499387 149.664658 592.264872 149.683887 Z M 580.884186 149.683887 " transform="matrix(0.202509,0,0,0.203136,0.0182669,0)"/>
<path style="fill-rule:nonzero;fill:rgb(100%,100%,100%);fill-opacity:1;stroke-width:1;stroke-linecap:butt;stroke-linejoin:miter;stroke:rgb(96.078431%,96.862745%,98.039216%);stroke-opacity:1;stroke-miterlimit:10;" d="M 661.995687 169.701992 C 658.041381 169.8366 654.106364 169.22125 650.383529 167.894402 C 647.702316 166.913687 645.233286 165.433002 643.111463 163.529262 C 641.529741 162.106266 640.218069 160.375594 639.253604 158.471855 C 638.597767 157.241155 638.154114 155.895077 637.961221 154.510539 C 637.903353 153.895189 638.134824 153.260609 638.617057 152.837556 C 639.08 152.376044 639.697257 152.145287 640.333804 152.145287 L 651.907384 152.145287 C 652.428195 152.126058 652.929716 152.279895 653.354081 152.6068 C 653.778446 153.010623 654.087074 153.510595 654.260678 154.068256 C 654.646464 154.760525 655.070829 155.452794 655.533772 156.106603 C 656.093161 156.875791 656.826155 157.471911 657.674884 157.875734 C 658.89011 158.433395 660.201782 158.683381 661.532744 158.606462 C 663.095177 158.664152 664.65761 158.375706 666.085018 157.741127 C 667.300244 157.164236 668.264709 156.164292 668.824099 154.933592 C 669.499224 153.260609 669.807853 151.472248 669.730696 149.683887 L 669.730696 143.607306 C 668.22613 145.20337 666.393647 146.4533 664.368271 147.280177 C 661.841372 148.28012 659.16016 148.760863 656.440369 148.683944 C 653.66271 148.741633 650.885051 148.28012 648.261706 147.337866 C 645.985569 146.47253 643.940903 145.068762 642.339891 143.222713 C 640.681012 141.280514 639.427207 139.030641 638.655635 136.58847 C 637.71046 133.665558 637.189649 130.646497 637.054624 127.588977 C 636.996756 126.012142 636.996756 124.416078 637.054624 122.762325 C 637.208938 119.781723 637.729749 116.839581 638.617057 113.993587 C 639.369339 111.512958 640.623144 109.224625 642.282024 107.243967 C 643.940903 105.378687 645.985569 103.917231 648.280995 102.974977 C 650.885051 101.917344 653.681999 101.417372 656.478947 101.475061 C 659.391632 101.398142 662.285026 102.032722 664.889082 103.340341 C 667.088062 104.494122 669.036281 106.070956 670.598714 107.993925 L 670.598714 104.62873 C 670.598714 104.032609 670.830186 103.455719 671.235261 103.032666 C 671.659626 102.571153 672.257594 102.321167 672.874851 102.340397 L 683.348941 102.340397 C 683.966198 102.340397 684.583456 102.590383 685.02711 103.032666 C 685.470763 103.455719 685.721524 104.032609 685.702235 104.62873 L 685.702235 148.395498 C 685.83726 152.452962 684.892084 156.491197 682.924576 160.048689 C 681.053514 163.240817 678.217987 165.740677 674.82307 167.240592 C 670.772318 168.971264 666.412936 169.81737 661.995687 169.701992 Z M 661.35914 136.857686 C 663.037309 136.934605 664.676899 136.492322 666.085018 135.588527 C 667.280955 134.78088 668.206841 133.627098 668.78552 132.31948 C 669.364199 130.954172 669.711406 129.511945 669.788564 128.031259 C 669.846431 127.37745 669.865721 126.435195 669.865721 125.204495 C 669.865721 123.993025 669.865721 123.08923 669.788564 122.47388 C 669.711406 120.973964 669.383488 119.493278 668.78552 118.12797 C 668.206841 116.801122 667.280955 115.6858 666.085018 114.897383 C 664.676899 114.012817 663.01802 113.589764 661.35914 113.666683 C 659.680971 113.570534 658.002802 114.012817 656.575394 114.935842 C 655.398747 115.781948 654.49215 116.993419 654.029206 118.397186 C 653.489106 119.935561 653.141899 121.570084 653.026163 123.204608 C 652.968295 124.550686 652.968295 125.915994 653.026163 127.300531 C 653.141899 128.954284 653.489106 130.569578 654.029206 132.127183 C 654.49215 133.51172 655.398747 134.723191 656.575394 135.588527 C 657.983513 136.492322 659.642392 136.934605 661.320561 136.857686 Z M 661.35914 136.857686 " transform="matrix(0.202509,0,0,0.203136,0.0182669,0)"/>
<path style="fill-rule:nonzero;fill:url(#radial0);stroke-width:1;stroke-linecap:butt;stroke-linejoin:miter;stroke:url(#radial1);stroke-miterlimit:10;" d="M 207.154022 178.932242 L 105.383682 245.54388 L 0.507765 183.816583 L 0.507765 75.380375 L 20.124982 90.937192 L 20.124982 173.586389 L 105.383682 222.218269 L 174.612975 178.932242 L 159.62519 164.875341 L 159.62519 90.937192 L 105.383682 59.823558 L 87.56037 71.015236 L 87.56037 87.341241 L 67.152292 87.341241 L 67.152292 59.823558 L 105.383682 36.978689 L 179.782508 79.764744 L 179.782508 156.587345 Z M 207.154022 178.932242 " transform="matrix(0.202509,0,0,0.203136,0.0182669,0)"/>
<path style="fill-rule:nonzero;fill:rgb(9.019608%,9.019608%,22.745098%);fill-opacity:1;stroke-width:0.5;stroke-linecap:butt;stroke-linejoin:miter;stroke:rgb(9.019608%,9.019608%,22.745098%);stroke-opacity:1;stroke-miterlimit:10;" d="M 115.491275 100.802022 C 109.318699 103.321111 103.493331 105.801741 96.973548 102.955747 C 96.838523 104.474892 97.667963 105.917119 99.076082 106.551698 C 101.294351 107.70548 103.744092 107.763169 106.155254 107.878547 C 106.637487 107.859317 107.119719 107.917006 107.601952 108.013155 C 104.303482 109.936123 101.024301 112.01293 96.934969 111.339891 C 96.317712 111.128364 95.642586 111.436039 95.391826 112.051389 C 92.980663 116.30115 90.492344 120.512452 88.061892 124.762212 C 87.811131 125.492941 87.039559 125.896764 86.306566 125.704467 C 84.377636 125.377562 82.487285 124.954509 80.616223 124.396848 C 79.902519 124.243011 79.30455 123.781498 78.976632 123.127689 C 78.629425 122.493109 78.590846 121.723922 78.860897 121.050883 C 79.497443 118.608712 78.995922 115.993475 77.452778 113.974358 C 73.922836 108.628505 74.713697 103.474948 79.169525 98.898283 C 79.343129 98.705986 79.497443 98.47523 79.728915 98.186784 C 74.964458 99.802078 72.051774 104.59027 72.823346 109.55153 C 73.131975 111.897552 73.999993 114.147425 74.520804 116.454987 C 74.752276 117.416472 74.829433 118.397186 74.752276 119.39713 C 74.578672 121.608544 74.038572 123.819958 74.07715 126.031372 C 74.135018 130.47343 76.642627 133.204045 81.079166 133.569409 C 83.99185 133.780936 86.943113 133.742477 89.855797 133.434802 C 94.948172 133.069437 99.481157 136.6077 100.368465 141.626648 C 97.359334 142.184309 94.427361 142.7612 91.456809 143.261172 C 91.167469 143.318861 90.665947 142.876578 90.453765 142.530444 C 89.064936 140.030584 89.103514 140.088273 86.19083 140.453637 C 79.767494 141.318973 73.324868 142.16508 66.805085 141.395892 C 64.432501 141.242055 62.117785 140.511327 60.07312 139.242167 C 59.725912 139.030641 59.320837 138.915262 58.915762 138.934492 C 56.909675 139.030641 55.000034 139.165248 53.032525 139.299856 C 52.453847 139.299856 51.855878 139.415234 51.122885 139.472923 L 51.122885 82.706886 C 55.790895 80.033959 61.326924 79.36092 66.496456 80.841606 C 70.817259 81.937698 75.234508 82.745345 79.497443 84.110653 C 85.264944 85.975933 90.415186 89.398817 94.350203 93.994712 C 97.552227 97.571434 102.046634 99.725159 106.849669 99.994375 Z M 115.491275 100.802022 " transform="matrix(0.202509,0,0,0.203136,0.0182669,0)"/>
<path style="fill-rule:nonzero;fill:rgb(9.019608%,9.019608%,22.745098%);fill-opacity:1;stroke-width:0.5;stroke-linecap:butt;stroke-linejoin:miter;stroke:rgb(9.019608%,9.019608%,22.745098%);stroke-opacity:1;stroke-miterlimit:10;" d="M 89.142093 152.645259 L 80.307594 154.587458 C 80.037544 153.510595 79.709626 152.452962 79.555311 151.39533 C 79.400997 150.318467 78.995922 149.991562 77.93501 149.991562 C 73.112685 149.703117 68.386807 148.991619 64.085294 146.568678 C 62.2721 145.568734 60.728956 144.145737 59.571598 142.434295 L 62.947225 143.241942 C 66.535035 144.222656 70.277159 144.645709 73.999993 144.472642 C 77.047702 144.241886 80.114701 144.645709 83.008096 145.703342 C 86.132962 146.760975 88.466967 149.414672 89.142093 152.645259 Z M 89.142093 152.645259 " transform="matrix(0.202509,0,0,0.203136,0.0182669,0)"/>
<path style=" stroke:none;fill-rule:nonzero;fill:url(#radial2);" d="M 23.191406 20.300781 C 21.941406 20.8125 20.761719 21.316406 19.441406 20.738281 C 19.414062 21.046875 19.582031 21.339844 19.863281 21.46875 C 20.3125 21.703125 20.808594 21.714844 21.296875 21.734375 C 21.394531 21.734375 21.492188 21.746094 21.589844 21.765625 C 20.921875 22.15625 20.257812 22.578125 19.429688 22.441406 C 19.304688 22.398438 19.167969 22.460938 19.117188 22.585938 C 18.628906 23.449219 18.125 24.304688 17.636719 25.167969 C 17.582031 25.316406 17.425781 25.394531 17.277344 25.359375 C 16.886719 25.292969 16.503906 25.207031 16.125 25.09375 C 15.980469 25.0625 15.859375 24.964844 15.792969 24.835938 C 15.722656 24.703125 15.714844 24.550781 15.769531 24.414062 C 15.898438 23.914062 15.796875 23.386719 15.484375 22.976562 C 14.769531 21.890625 14.929688 20.84375 15.832031 19.910156 C 15.867188 19.875 15.898438 19.828125 15.945312 19.765625 C 14.980469 20.09375 14.390625 21.070312 14.546875 22.078125 C 14.609375 22.550781 14.789062 23.007812 14.890625 23.476562 C 14.9375 23.675781 14.953125 23.875 14.9375 24.074219 C 14.902344 24.527344 14.792969 24.976562 14.800781 25.425781 C 14.8125 26.328125 15.320312 26.882812 16.21875 26.957031 C 16.808594 27 17.40625 26.988281 17.996094 26.929688 C 19.027344 26.851562 19.949219 27.570312 20.125 28.59375 C 19.515625 28.707031 18.921875 28.824219 18.320312 28.925781 C 18.261719 28.933594 18.160156 28.84375 18.117188 28.777344 C 17.835938 28.269531 17.84375 28.277344 17.253906 28.355469 C 15.953125 28.527344 14.648438 28.699219 13.328125 28.546875 C 12.847656 28.515625 12.378906 28.363281 11.96875 28.109375 C 11.898438 28.066406 11.8125 28.042969 11.730469 28.046875 C 11.324219 28.066406 10.9375 28.09375 10.542969 28.121094 C 10.421875 28.121094 10.300781 28.140625 10.152344 28.15625 L 10.152344 16.625 C 11.101562 16.078125 12.230469 15.945312 13.28125 16.25 C 14.160156 16.472656 15.054688 16.640625 15.914062 16.917969 C 17.082031 17.296875 18.117188 17.992188 18.914062 18.925781 C 19.5625 19.652344 20.472656 20.089844 21.445312 20.144531 Z M 23.191406 20.300781 "/>
<path style=" stroke:none;fill-rule:nonzero;fill:url(#radial3);" d="M 17.855469 30.832031 L 16.066406 31.222656 C 16.011719 31.007812 15.945312 30.792969 15.914062 30.574219 C 15.882812 30.359375 15.796875 30.300781 15.585938 30.289062 C 14.609375 30.230469 13.652344 30.085938 12.78125 29.589844 C 12.417969 29.386719 12.101562 29.097656 11.867188 28.75 L 12.550781 28.917969 C 13.285156 29.117188 14.042969 29.203125 14.800781 29.171875 C 15.417969 29.121094 16.042969 29.207031 16.625 29.421875 C 17.253906 29.640625 17.722656 30.175781 17.855469 30.832031 Z M 17.855469 30.832031 "/>
<path style="fill-rule:nonzero;fill:rgb(9.019608%,9.019608%,22.745098%);fill-opacity:1;stroke-width:0.5;stroke-linecap:butt;stroke-linejoin:miter;stroke:rgb(9.019608%,9.019608%,22.745098%);stroke-opacity:1;stroke-miterlimit:10;" d="M 159.335851 91.70638 L 159.335851 149.145456 C 158.757172 150.183859 157.561235 150.683831 156.403877 150.395386 C 155.304387 150.260778 154.166319 150.395386 153.066829 150.241548 C 152.256678 150.16463 151.92876 150.395386 151.697289 151.203033 C 150.752113 154.722066 149.691201 158.202639 148.765315 161.721672 C 147.415064 165.067637 145.33182 168.067469 142.689186 170.509639 L 131.482103 170.394261 L 131.096318 171.124989 L 129.688199 172.336459 L 122.686183 170.163505 C 122.686183 170.163505 127.296326 165.163786 129.514595 163.952316 C 129.784645 163.779248 130.054695 163.625411 130.363324 163.490803 C 130.575506 163.375425 130.806978 163.260047 131.03845 163.163898 C 131.906468 162.856223 132.523726 162.067806 132.620172 161.164011 C 133.411033 156.048914 134.33692 150.933817 135.14707 145.83795 C 135.204938 145.357208 135.089202 144.876466 134.780574 144.491872 C 132.793776 142.376606 130.710532 140.31903 128.530841 138.088386 C 127.315615 138.819114 125.79176 139.819058 124.171459 140.626705 C 122.551158 141.434352 120.892278 142.14585 119.175531 142.7612 C 118.481116 142.991956 117.709544 142.972727 117.015129 142.703511 C 116.610054 142.511214 116.127822 141.415122 116.282136 141.222825 C 117.362337 139.895977 116.282136 139.319086 115.529853 138.626817 L 114.79686 137.953778 C 115.317671 138.088386 115.549143 138.126845 115.799904 138.222994 C 117.690255 138.992181 117.709544 138.992181 118.461827 137.126902 C 118.751166 136.434633 118.982638 135.723134 119.175531 135.011636 C 119.773499 132.357939 118.65472 130.723416 115.973507 130.377281 C 114.044577 130.127295 112.134937 129.896539 110.090271 129.627323 C 110.206007 130.47343 110.341032 131.492603 110.553214 132.93483 C 109.704485 131.454144 109.125806 130.281133 108.412102 129.20427 C 107.852713 128.377394 107.158298 127.627436 106.54104 126.819789 C 106.27099 126.396736 106.039518 125.954453 105.846625 125.492941 C 105.634443 124.89682 105.364393 124.31993 105.036475 123.781498 C 103.975563 122.320042 104.34206 121.012423 106.039518 120.435533 C 109.048649 119.435589 112.115648 118.358727 115.182646 117.378012 C 116.069954 117.089567 117.053708 117.128027 117.960305 116.858811 C 118.346091 116.666514 118.616141 116.30115 118.674009 115.858867 C 118.38467 114.205114 119.445581 112.58982 121.085171 112.224456 C 123.515623 111.666795 126.003943 111.262972 128.492262 111.032216 C 129.302413 111.032216 130.054695 110.609162 130.498349 109.916894 C 131.539971 108.378519 132.697329 106.917062 133.931844 105.532525 C 135.108492 104.263366 136.169403 104.532581 136.690214 106.205564 C 136.960264 107.282427 137.153157 108.378519 137.288182 109.493841 C 137.403918 109.878434 137.538943 110.243798 137.693258 110.609162 C 138.252647 110.089961 138.773458 109.51307 139.255691 108.91695 C 141.917614 104.878716 145.100348 101.205845 148.726737 97.994487 C 151.793735 95.206183 155.400834 93.052458 159.335851 91.70638 Z M 159.335851 91.70638 " transform="matrix(0.202509,0,0,0.203136,0.0182669,0)"/>
<path style=" stroke:none;fill-rule:nonzero;fill:url(#radial4);" d="M 32.378906 18.363281 L 32.378906 30.03125 C 32.261719 30.238281 32.015625 30.34375 31.785156 30.285156 C 31.558594 30.257812 31.332031 30.285156 31.105469 30.253906 C 30.941406 30.234375 30.875 30.285156 30.828125 30.457031 C 30.640625 31.167969 30.425781 31.878906 30.238281 32.59375 C 29.949219 33.441406 29.199219 34.21875 29.003906 34.378906 L 26.738281 34.355469 L 26.660156 34.503906 L 26.371094 34.738281 L 24.953125 34.292969 C 24.953125 34.292969 25.886719 33.277344 26.335938 33.035156 C 26.390625 33 26.449219 32.96875 26.507812 32.941406 C 26.554688 32.917969 26.597656 32.894531 26.644531 32.871094 C 26.824219 32.808594 26.949219 32.652344 26.964844 32.464844 C 27.125 31.425781 27.3125 30.390625 27.476562 29.351562 C 27.492188 29.257812 27.464844 29.160156 27.40625 29.082031 C 27 28.648438 26.582031 28.230469 26.140625 27.78125 C 25.890625 27.925781 25.582031 28.128906 25.257812 28.292969 C 24.929688 28.460938 24.589844 28.605469 24.246094 28.726562 C 24.101562 28.773438 23.945312 28.769531 23.808594 28.714844 C 23.722656 28.679688 23.625 28.453125 23.65625 28.414062 C 23.875 28.148438 23.65625 28.03125 23.503906 27.890625 L 23.355469 27.753906 C 23.457031 27.78125 23.507812 27.789062 23.558594 27.808594 C 23.941406 27.960938 23.945312 27.964844 24.097656 27.585938 C 24.15625 27.445312 24.207031 27.300781 24.242188 27.15625 C 24.367188 26.617188 24.136719 26.285156 23.59375 26.210938 C 23.207031 26.160156 22.820312 26.113281 22.402344 26.0625 C 22.429688 26.234375 22.457031 26.441406 22.5 26.734375 C 22.328125 26.433594 22.207031 26.195312 22.0625 25.976562 C 21.953125 25.804688 21.804688 25.65625 21.6875 25.488281 C 21.632812 25.40625 21.585938 25.316406 21.546875 25.222656 C 21.5 25.101562 21.445312 24.984375 21.382812 24.871094 C 21.164062 24.574219 21.242188 24.3125 21.582031 24.195312 C 22.191406 23.992188 22.816406 23.769531 23.433594 23.570312 C 23.613281 23.511719 23.816406 23.523438 23.996094 23.464844 C 24.078125 23.425781 24.132812 23.351562 24.144531 23.261719 C 24.082031 22.925781 24.296875 22.601562 24.628906 22.523438 C 25.125 22.410156 25.625 22.328125 26.128906 22.28125 C 26.292969 22.28125 26.445312 22.195312 26.535156 22.054688 C 26.746094 21.742188 26.980469 21.445312 27.234375 21.164062 C 27.46875 20.90625 27.683594 20.960938 27.789062 21.300781 C 27.84375 21.519531 27.886719 21.746094 27.910156 21.96875 C 27.933594 22.046875 27.960938 22.121094 27.992188 22.195312 C 28.109375 22.089844 28.214844 21.976562 28.3125 21.851562 C 28.847656 21.035156 29.488281 20.292969 30.222656 19.648438 C 30.847656 19.074219 31.578125 18.636719 32.378906 18.363281 Z M 32.378906 18.363281 "/>
<path style="fill-rule:nonzero;fill:url(#radial5);stroke-width:1;stroke-linecap:butt;stroke-linejoin:miter;stroke:url(#radial6);stroke-miterlimit:10;" d="M 210.2596 62.304187 L 210.2596 171.182678 L 190.623093 155.145119 L 190.623093 72.515152 L 105.383682 23.921731 L 36.154389 67.169298 L 51.122885 81.24543 L 51.122885 155.145119 L 105.383682 186.239523 L 123.206994 175.067075 L 123.206994 169.22125 L 143.595783 169.22125 L 143.595783 186.239523 L 105.383682 209.084392 L 30.984857 166.317567 L 30.984857 89.533425 L 3.594053 67.169298 L 105.383682 0.59612 Z M 210.2596 62.304187 " transform="matrix(0.202509,0,0,0.203136,0.0182669,0)"/>
</g>
</svg>
