<svg xmlns="http://www.w3.org/2000/svg" xmlns:xlink="http://www.w3.org/1999/xlink" viewBox="0 0 686.21 246.14"><defs><radialGradient id="New_Gradient_Swatch_copy_13" cx="103.83" cy="141.26" r="103.81" gradientUnits="userSpaceOnUse"><stop offset="0.03" stop-color="#ffd600"/><stop offset="1" stop-color="#ff9000"/></radialGradient><radialGradient id="New_Gradient_Swatch_copy_14" cx="104" cy="141.27" r="104.44" gradientUnits="userSpaceOnUse"><stop offset="0.35" stop-color="#ffd600"/><stop offset="1" stop-color="#ff9000"/></radialGradient><radialGradient id="New_Gradient_Swatch_copy_10" cx="82.29" cy="110.81" r="31.87" gradientUnits="userSpaceOnUse"><stop offset="0.03" stop-color="#eda34e"/><stop offset="1" stop-color="#e05d3a"/></radialGradient><radialGradient id="New_Gradient_Swatch_copy_10-2" cx="73.3" cy="147.62" r="11.31" xlink:href="#New_Gradient_Swatch_copy_10"/><radialGradient id="New_Gradient_Swatch_copy_10-3" cx="132.3" cy="130.71" r="34.5" xlink:href="#New_Gradient_Swatch_copy_10"/><radialGradient id="New_Gradient_Swatch_copy_14-2" cx="106.93" cy="104.84" r="103.79" xlink:href="#New_Gradient_Swatch_copy_14"/><radialGradient id="New_Gradient_Swatch_copy_13-2" cx="106.76" cy="104.83" r="104.42" xlink:href="#New_Gradient_Swatch_copy_13"/></defs><g id="Layer_2" data-name="Layer 2"><g id="Layer_1-2" data-name="Layer 1"><path d="M247.54,149.69a2.11,2.11,0,0,1-1.63-.68,2.22,2.22,0,0,1-.64-1.59V88.27A2.19,2.19,0,0,1,247.54,86H275.3a32.23,32.23,0,0,1,12.83,2.19,15.48,15.48,0,0,1,7.42,6.23A18.49,18.49,0,0,1,298,104a12.94,12.94,0,0,1-1.23,5.78,14.21,14.21,0,0,1-6.33,6.51,16.14,16.14,0,0,1,6.15,5.37,14.54,14.54,0,0,1,2.68,8.73,19.17,19.17,0,0,1-2.68,10.33,17.25,17.25,0,0,1-7.83,6.64,30.53,30.53,0,0,1-12.6,2.32Zm14.11-38.4h11.83a7.42,7.42,0,0,0,5.6-2,6.81,6.81,0,0,0,1.86-4.87,6.48,6.48,0,0,0-1.86-4.78,7.63,7.63,0,0,0-5.6-1.87H261.65Zm0,26.57H274.3a7.43,7.43,0,0,0,5.91-2.27,7.5,7.5,0,0,0-5.91-12.74H261.65Z" style="fill:#fff;stroke:#f5f7fa;stroke-miterlimit:10"/><path d="M312.7,95.55a2.21,2.21,0,0,1-1.64-.64,2.23,2.23,0,0,1-.64-1.64V85.08a2.3,2.3,0,0,1,.64-1.59,2.16,2.16,0,0,1,1.64-.68h10.92a2.32,2.32,0,0,1,2.27,2.27v8.19a2.11,2.11,0,0,1-.68,1.64,2.22,2.22,0,0,1-1.59.64Zm.09,54.14a2.13,2.13,0,0,1-1.64-.68,2.25,2.25,0,0,1-.63-1.59V104.65a2.18,2.18,0,0,1,2.27-2.28h10.74a2.26,2.26,0,0,1,1.64.64,2.24,2.24,0,0,1,.63,1.64v42.77a2.25,2.25,0,0,1-.63,1.59,2.14,2.14,0,0,1-1.64.68Z" style="fill:#fff;stroke:#f5f7fa;stroke-miterlimit:10"/><path d="M354.65,149.69A2.13,2.13,0,0,1,353,149a2.25,2.25,0,0,1-.63-1.59V100.28h-16.2a2.15,2.15,0,0,1-1.64-.68,2.26,2.26,0,0,1-.64-1.6V88.27a2.21,2.21,0,0,1,.64-1.64,2.23,2.23,0,0,1,1.64-.64h49a2.19,2.19,0,0,1,2.27,2.28V98a2.26,2.26,0,0,1-.64,1.6,2.14,2.14,0,0,1-1.63.68h-16.2v47.14a2.26,2.26,0,0,1-.64,1.59,2.11,2.11,0,0,1-1.64.68Z" style="fill:#fff;stroke:#f5f7fa;stroke-miterlimit:10"/><path d="M393.87,149.69a2.13,2.13,0,0,1-1.64-.68,2.25,2.25,0,0,1-.63-1.59V104.65a2.25,2.25,0,0,1,.63-1.59,2.14,2.14,0,0,1,1.64-.69h10.47a2.27,2.27,0,0,1,1.68.69,2.14,2.14,0,0,1,.68,1.59v3.64a16.2,16.2,0,0,1,5.78-4.37,18.47,18.47,0,0,1,7.69-1.55h4a2.19,2.19,0,0,1,2.27,2.28V114a2.22,2.22,0,0,1-.64,1.59,2.12,2.12,0,0,1-1.63.69h-8.83a7.12,7.12,0,0,0-7.83,7.82v23.3a2.18,2.18,0,0,1-.68,1.59,2.28,2.28,0,0,1-1.68.68Z" style="fill:#fff;stroke:#f5f7fa;stroke-miterlimit:10"/><path d="M447.93,150.6a20,20,0,0,1-8.78-1.86,15.85,15.85,0,0,1-6.15-5.05,12.13,12.13,0,0,1-2.27-7.19A11.94,11.94,0,0,1,436,126.26q5.26-3.78,14-5.14l11.38-1.73v-1.27a7.93,7.93,0,0,0-1.37-5q-1.36-1.73-5-1.73a7.77,7.77,0,0,0-4.15,1,7.08,7.08,0,0,0-2.5,2.73,2.6,2.6,0,0,1-2.27,1.19h-10.2a2,2,0,0,1-1.54-.59,1.72,1.72,0,0,1-.46-1.42,7.78,7.78,0,0,1,1.23-3.77,15.75,15.75,0,0,1,3.78-4.23,20.72,20.72,0,0,1,6.55-3.46,30.41,30.41,0,0,1,9.74-1.37,32.46,32.46,0,0,1,10,1.37,18,18,0,0,1,6.82,3.82,14.82,14.82,0,0,1,3.87,5.78,20.94,20.94,0,0,1,1.23,7.32v27.67a2.32,2.32,0,0,1-2.28,2.27H464.31a2.11,2.11,0,0,1-1.64-.68,2.22,2.22,0,0,1-.64-1.59v-3.19a13.17,13.17,0,0,1-3.18,3.19,16.71,16.71,0,0,1-4.69,2.32A20.57,20.57,0,0,1,447.93,150.6Zm4.27-10.37a10,10,0,0,0,4.78-1.14,8,8,0,0,0,3.37-3.55,13.21,13.21,0,0,0,1.23-6v-1.27l-7.74,1.36a14.44,14.44,0,0,0-6.23,2.23,4.34,4.34,0,0,0-2,3.51,3.93,3.93,0,0,0,.91,2.63,5.93,5.93,0,0,0,2.41,1.69A8.83,8.83,0,0,0,452.2,140.23Z" style="fill:#fff;stroke:#f5f7fa;stroke-miterlimit:10"/><path d="M506.71,150.6a20.94,20.94,0,0,1-7.87-1.41,16,16,0,0,1-6-4.18,19.31,19.31,0,0,1-3.87-6.74,31.08,31.08,0,0,1-1.55-9.05c-.06-1.21-.09-2.29-.09-3.23s0-2,.09-3.23A30.28,30.28,0,0,1,489,114a19.7,19.7,0,0,1,3.82-6.74,16.59,16.59,0,0,1,6-4.28,20.1,20.1,0,0,1,7.91-1.5,18.67,18.67,0,0,1,7.83,1.5,18.38,18.38,0,0,1,5.55,3.87V87.36a2.19,2.19,0,0,1,2.27-2.28h11.11a2.3,2.3,0,0,1,1.59.64,2.16,2.16,0,0,1,.68,1.64v60.06a2.32,2.32,0,0,1-2.27,2.27H523.18a2.11,2.11,0,0,1-1.63-.68,2.22,2.22,0,0,1-.64-1.59v-2.91a17.17,17.17,0,0,1-5.64,4.36A19,19,0,0,1,506.71,150.6Zm5-12.19a7.32,7.32,0,0,0,7.41-4.73,13,13,0,0,0,1-4.55c.06-1.22.09-2.37.09-3.46s0-2.21-.09-3.37a11.12,11.12,0,0,0-1-4.23,7.77,7.77,0,0,0-2.73-3.18,9.5,9.5,0,0,0-9.42,0,7.06,7.06,0,0,0-2.55,3.46,18.32,18.32,0,0,0-.95,4.82,29.52,29.52,0,0,0,0,5.64,18.4,18.4,0,0,0,.95,4.83,7.11,7.11,0,0,0,2.55,3.46A8,8,0,0,0,511.72,138.41Z" style="fill:#fff;stroke:#f5f7fa;stroke-miterlimit:10"/><path d="M550.3,95.55A2.18,2.18,0,0,1,548,93.27V85.08a2.29,2.29,0,0,1,.63-1.59,2.16,2.16,0,0,1,1.64-.68h10.92a2.34,2.34,0,0,1,2.28,2.27v8.19a2.12,2.12,0,0,1-.69,1.64,2.22,2.22,0,0,1-1.59.64Zm.09,54.14a2.13,2.13,0,0,1-1.64-.68,2.25,2.25,0,0,1-.63-1.59V104.65a2.18,2.18,0,0,1,2.27-2.28h10.74a2.19,2.19,0,0,1,2.28,2.28v42.77a2.26,2.26,0,0,1-.64,1.59,2.13,2.13,0,0,1-1.64.68Z" style="fill:#fff;stroke:#f5f7fa;stroke-miterlimit:10"/><path d="M580.88,149.69a2.11,2.11,0,0,1-1.64-.68,2.22,2.22,0,0,1-.64-1.59V104.65a2.21,2.21,0,0,1,.64-1.64,2.23,2.23,0,0,1,1.64-.64h10.46A2.42,2.42,0,0,1,593,103a2.16,2.16,0,0,1,.68,1.64v3.46a18.12,18.12,0,0,1,6.09-4.74,20,20,0,0,1,9-1.91,18.13,18.13,0,0,1,9.33,2.37,16.41,16.41,0,0,1,6.37,6.92A24.61,24.61,0,0,1,626.83,122v25.39a2.22,2.22,0,0,1-.64,1.59,2.11,2.11,0,0,1-1.63.68H613.09a2.32,2.32,0,0,1-2.27-2.27V122.58a9.66,9.66,0,0,0-2.05-6.6,7.64,7.64,0,0,0-6-2.32,7.86,7.86,0,0,0-6,2.32q-2.24,2.31-2.23,6.6v24.84a2.34,2.34,0,0,1-2.28,2.27Z" style="fill:#fff;stroke:#f5f7fa;stroke-miterlimit:10"/><path d="M662,169.71a31.67,31.67,0,0,1-11.61-1.82,22.63,22.63,0,0,1-7.28-4.36,17.25,17.25,0,0,1-3.86-5.06,11.72,11.72,0,0,1-1.28-3.95,2,2,0,0,1,.64-1.69,2.45,2.45,0,0,1,1.73-.68h11.56a2.16,2.16,0,0,1,1.45.46,3.21,3.21,0,0,1,.91,1.45,22.66,22.66,0,0,0,1.28,2.05,5.59,5.59,0,0,0,2.13,1.77,8.47,8.47,0,0,0,3.87.73,10.67,10.67,0,0,0,4.55-.86,5.68,5.68,0,0,0,2.73-2.82,12.54,12.54,0,0,0,.91-5.24V143.6a15.46,15.46,0,0,1-5.37,3.68,19.94,19.94,0,0,1-7.91,1.41,22.68,22.68,0,0,1-8.19-1.36,14.65,14.65,0,0,1-5.92-4.1,19.48,19.48,0,0,1-3.69-6.64,34.22,34.22,0,0,1-1.59-9c-.06-1.58-.06-3.18,0-4.82a34.93,34.93,0,0,1,1.55-8.78,19.13,19.13,0,0,1,3.68-6.74,16.19,16.19,0,0,1,6-4.28,20.85,20.85,0,0,1,8.19-1.5,17.7,17.7,0,0,1,8.41,1.87A18.4,18.4,0,0,1,670.6,108v-3.37a2.22,2.22,0,0,1,.64-1.59,2.12,2.12,0,0,1,1.64-.69h10.46a2.29,2.29,0,0,1,1.69.69,2.18,2.18,0,0,1,.68,1.59v43.77a22.7,22.7,0,0,1-2.78,11.65,17.74,17.74,0,0,1-8.1,7.19A30.69,30.69,0,0,1,662,169.71Zm-.64-32.85a8.06,8.06,0,0,0,4.73-1.27,7.67,7.67,0,0,0,2.69-3.28,12,12,0,0,0,1-4.27c.06-.67.09-1.61.09-2.83s0-2.12-.09-2.73a12.18,12.18,0,0,0-1-4.36,7.36,7.36,0,0,0-2.69-3.23,8.28,8.28,0,0,0-4.73-1.23,8.06,8.06,0,0,0-4.78,1.27,7.06,7.06,0,0,0-2.55,3.46,18.32,18.32,0,0,0-1,4.82c-.06,1.34-.06,2.7,0,4.1a18.32,18.32,0,0,0,1,4.82,7.06,7.06,0,0,0,2.55,3.46A8.06,8.06,0,0,0,661.32,136.86Z" style="fill:#fff;stroke:#f5f7fa;stroke-miterlimit:10"/><polygon points="207.16 178.94 105.38 245.55 0.5 183.81 0.5 75.38 20.13 90.94 20.13 173.59 105.38 222.21 174.61 178.94 159.63 164.87 159.63 90.94 105.38 59.83 87.56 71.01 87.56 87.34 67.16 87.34 67.16 59.83 105.38 36.97 179.78 79.76 179.78 156.58 207.16 178.94" style="stroke-miterlimit:10;fill:url(#New_Gradient_Swatch_copy_13);stroke:url(#New_Gradient_Swatch_copy_14)"/><path d="M115.5,100.81c-6.18,2.52-12,5-18.53,2.15a3.59,3.59,0,0,0,2.1,3.59c2.23,1.16,4.67,1.22,7.09,1.32a6.08,6.08,0,0,1,1.44.15c-3.3,1.92-6.57,4-10.67,3.32a1.22,1.22,0,0,0-1.53.71c-2.42,4.25-4.91,8.46-7.33,12.72a1.48,1.48,0,0,1-1.77.93,46.8,46.8,0,0,1-5.68-1.3,2.49,2.49,0,0,1-1.76-3.35,8.25,8.25,0,0,0-1.4-7.08c-3.53-5.34-2.75-10.49,1.71-15.08.18-.18.32-.41.56-.71a10.36,10.36,0,0,0-6.91,11.38c.32,2.33,1.18,4.58,1.7,6.89a9.7,9.7,0,0,1,.23,2.94c-.17,2.22-.71,4.43-.68,6.64.07,4.45,2.57,7.17,7,7.54a51.64,51.64,0,0,0,8.79-.13,9.91,9.91,0,0,1,10.5,8.19c-3,.56-5.93,1.14-8.91,1.63-.28.05-.78-.39-1-.72-1.38-2.51-1.35-2.46-4.25-2.08-6.44.85-12.88,1.7-19.39.94a14.67,14.67,0,0,1-6.73-2.15,2.06,2.06,0,0,0-1.17-.31c-2,.09-3.91.23-5.87.36-.59,0-1.19.11-1.91.17V82.71a19.92,19.92,0,0,1,15.36-1.87c4.33,1.1,8.74,1.91,13,3.28A32.78,32.78,0,0,1,94.35,94a18.14,18.14,0,0,0,12.5,6Z" style="fill:#17173a;stroke:#17173a;stroke-miterlimit:10;stroke-width:0.5px"/><path d="M89.14,152.65l-8.84,1.93c-.26-1.07-.6-2.12-.75-3.19S79,150,77.93,150c-4.82-.29-9.55-1-13.85-3.43a13.31,13.31,0,0,1-4.51-4.14l3.37.82A36.59,36.59,0,0,0,74,144.48,21.33,21.33,0,0,1,83,145.7,9.34,9.34,0,0,1,89.14,152.65Z" style="fill:#17173a;stroke:#17173a;stroke-miterlimit:10;stroke-width:0.5px"/><path d="M114.44,99.94c-6.18,2.52-12,5-18.53,2.15A3.58,3.58,0,0,0,98,105.68c2.22,1.16,4.66,1.22,7.08,1.32a6,6,0,0,1,1.44.15c-3.3,1.92-6.57,4-10.67,3.32a1.22,1.22,0,0,0-1.53.71c-2.42,4.25-4.91,8.46-7.32,12.72a1.5,1.5,0,0,1-1.78.93,46.8,46.8,0,0,1-5.68-1.3,2.49,2.49,0,0,1-1.76-3.35,8.25,8.25,0,0,0-1.4-7.08c-3.53-5.34-2.75-10.49,1.71-15.08.18-.18.32-.41.56-.71a10.36,10.36,0,0,0-6.91,11.38c.32,2.33,1.19,4.58,1.71,6.89a10,10,0,0,1,.22,2.94c-.17,2.22-.71,4.43-.68,6.64.07,4.45,2.57,7.17,7,7.54a51.62,51.62,0,0,0,8.79-.13,9.9,9.9,0,0,1,10.5,8.19c-3,.56-5.93,1.14-8.91,1.63-.28.05-.78-.39-1-.72-1.38-2.51-1.35-2.46-4.25-2.08-6.43.85-12.87,1.7-19.39.94a14.59,14.59,0,0,1-6.72-2.15,2.11,2.11,0,0,0-1.18-.31c-2,.09-3.91.23-5.86.36-.6,0-1.2.11-1.92.17V81.84A19.93,19.93,0,0,1,65.5,80c4.33,1.1,8.75,1.91,13,3.28a32.73,32.73,0,0,1,14.8,9.89,18.16,18.16,0,0,0,12.5,6Z" style="fill:url(#New_Gradient_Swatch_copy_10)"/><path d="M88.09,151.78l-8.85,1.93c-.26-1.07-.6-2.12-.75-3.19s-.58-1.35-1.61-1.42c-4.82-.29-9.55-1-13.85-3.43a13.34,13.34,0,0,1-4.52-4.14l3.38.82A36.52,36.52,0,0,0,73,143.61a21.35,21.35,0,0,1,9,1.22A9.36,9.36,0,0,1,88.09,151.78Z" style="fill:url(#New_Gradient_Swatch_copy_10-2)"/><path d="M159.34,91.71v57.44a2.63,2.63,0,0,1-2.93,1.25c-1.11-.13-2.24,0-3.35-.15-.81-.09-1.14.15-1.36.95-.94,3.52-2,7-2.93,10.52h0a24.28,24.28,0,0,1-6.09,8.79l-11.19-.12-.39.73-1.42,1.22-7-2.18s4.62-5,6.83-6.2a5.55,5.55,0,0,1,.85-.46,7.18,7.18,0,0,1,.68-.34,2.38,2.38,0,0,0,1.58-2c.79-5.12,1.71-10.22,2.53-15.33a1.81,1.81,0,0,0-.36-1.34c-2-2.12-4.07-4.18-6.25-6.4-1.23.73-2.75,1.72-4.36,2.53a44,44,0,0,1-5,2.14,3.27,3.27,0,0,1-2.16-.06c-.41-.18-.9-1.29-.74-1.48,1.08-1.33,0-1.9-.75-2.59l-.73-.68c.51.14.74.18,1,.27,1.89.77,1.9.77,2.67-1.09a15.48,15.48,0,0,0,.7-2.12c.61-2.65-.52-4.28-3.2-4.63-1.92-.26-3.83-.49-5.88-.75.12.85.26,1.87.47,3.31-.85-1.49-1.44-2.65-2.15-3.73-.55-.84-1.26-1.58-1.86-2.39a8.74,8.74,0,0,1-.7-1.32,10,10,0,0,0-.81-1.72c-1.07-1.46-.69-2.76,1-3.34,3-1,6.08-2.09,9.14-3.07.89-.28,1.88-.24,2.78-.51a1.3,1.3,0,0,0,.72-1,3.16,3.16,0,0,1,2.4-3.64,55.77,55.77,0,0,1,7.41-1.18,2.43,2.43,0,0,0,2-1.12,40.62,40.62,0,0,1,3.45-4.39c1.17-1.27,2.22-1,2.75.67a28,28,0,0,1,.6,3.29,8.07,8.07,0,0,0,.4,1.12,15.34,15.34,0,0,0,1.57-1.69A54.07,54.07,0,0,1,148.72,98,30.43,30.43,0,0,1,159.34,91.71Z" style="fill:#17173a;stroke:#17173a;stroke-miterlimit:10;stroke-width:0.5px"/><path d="M159.79,90.39v57.44a2.62,2.62,0,0,1-2.93,1.26c-1.11-.13-2.24,0-3.35-.16-.81-.09-1.14.16-1.36,1-.94,3.51-2,7-2.93,10.52h0c-1.42,4.17-5.12,8-6.09,8.8l-11.19-.12-.39.72L130.13,171l-7-2.18s4.61-5,6.83-6.2a5.44,5.44,0,0,1,.85-.45c.22-.12.44-.24.68-.35a2.36,2.36,0,0,0,1.58-2c.79-5.12,1.71-10.21,2.53-15.32a1.8,1.8,0,0,0-.36-1.34c-2-2.13-4.07-4.18-6.25-6.4-1.23.72-2.75,1.71-4.36,2.53a43.89,43.89,0,0,1-5,2.13,3.2,3.2,0,0,1-2.16-.06c-.41-.17-.9-1.29-.74-1.48,1.08-1.32,0-1.89-.75-2.58l-.73-.68c.5.14.74.18,1,.27,1.89.76,1.9.77,2.66-1.09a14.66,14.66,0,0,0,.71-2.12c.61-2.65-.52-4.28-3.2-4.64-1.92-.26-3.83-.48-5.88-.74.12.84.26,1.87.47,3.31-.85-1.49-1.44-2.65-2.15-3.74-.55-.84-1.27-1.57-1.86-2.39a8.19,8.19,0,0,1-.7-1.31,11.39,11.39,0,0,0-.81-1.73c-1.07-1.46-.69-2.75,1-3.34,3-1,6.08-2.09,9.14-3.06.89-.29,1.88-.24,2.78-.52a1.3,1.3,0,0,0,.72-1,3.16,3.16,0,0,1,2.4-3.64,55.79,55.79,0,0,1,7.41-1.19,2.42,2.42,0,0,0,2-1.11,40.47,40.47,0,0,1,3.45-4.4c1.17-1.27,2.22-1,2.75.68a27.26,27.26,0,0,1,.6,3.29,8.09,8.09,0,0,0,.4,1.11,14.48,14.48,0,0,0,1.57-1.68,54.07,54.07,0,0,1,9.44-10.86A30.61,30.61,0,0,1,159.79,90.39Z" style="fill:url(#New_Gradient_Swatch_copy_10-3)"/><polygon points="210.26 62.3 210.26 171.18 190.63 155.14 190.63 72.52 105.38 23.92 36.15 67.17 51.13 81.24 51.13 155.14 105.38 186.24 123.2 175.07 123.2 169.23 143.6 169.23 143.6 186.24 105.38 209.09 30.98 166.32 30.98 89.53 3.6 67.17 105.38 0.59 210.26 62.3" style="stroke-miterlimit:10;fill:url(#New_Gradient_Swatch_copy_14-2);stroke:url(#New_Gradient_Swatch_copy_13-2)"/></g></g></svg>