<svg width="32" height="32" viewBox="0 0 32 32" fill="none" xmlns="http://www.w3.org/2000/svg">
<path d="M16 32C24.8366 32 32 24.8366 32 16C32 7.16344 24.8366 0 16 0C7.16344 0 0 7.16344 0 16C0 24.8366 7.16344 32 16 32Z" fill="#139BD0"/>
<path fill-rule="evenodd" clip-rule="evenodd" d="M16.5241 19.8238C15.9079 20.424 15.297 21.0142 14.6919 21.609C14.4803 21.8174 14.2425 21.9326 13.9388 21.9166C13.7315 21.9056 13.6156 21.8146 13.552 21.6179C13.0883 20.179 12.6179 18.7436 12.1568 17.3033C12.112 17.1635 12.0458 17.0956 11.9043 17.0519C10.8121 16.7184 9.72192 16.377 8.63357 16.0311C8.4661 15.9778 8.29721 15.9081 8.1525 15.8096C7.92885 15.6581 7.89614 15.411 8.09668 15.2332C8.28192 15.0693 8.50308 14.9264 8.73277 14.8354C10.0679 14.3063 11.4101 13.7943 12.7502 13.2777C16.1511 11.9646 19.552 10.6526 22.9532 9.33953C23.6 9.08958 24.097 9.44158 24.0298 10.141C23.9868 10.5882 23.8709 11.0284 23.7774 11.47C23.0389 14.957 22.2997 18.4442 21.5573 21.9305C21.3809 22.7582 20.7996 22.9744 20.1184 22.472C18.9774 21.6311 17.8375 20.7874 16.6972 19.945C16.6428 19.9056 16.5863 19.8675 16.5241 19.8238ZM13.963 20.8826C13.9758 20.8791 13.9886 20.8755 14.0014 20.8723C14.0085 20.8396 14.0188 20.8076 14.0217 20.7753C14.0949 19.9849 14.1724 19.1948 14.2361 18.403C14.2503 18.2266 14.3107 18.1015 14.4433 17.9827C15.4951 17.0423 16.5404 16.0958 17.5879 15.1514C18.7473 14.1058 19.9072 13.0611 21.0624 12.0112C21.1338 11.9465 21.1637 11.8362 21.2128 11.7466C21.104 11.7349 20.9873 11.6912 20.8885 11.7168C20.7537 11.7516 20.6261 11.8298 20.5059 11.9056C17.947 13.5173 15.3902 15.1319 12.8295 16.7404C12.6848 16.8314 12.6577 16.9086 12.7129 17.0675C12.9017 17.6098 13.0734 18.157 13.2515 18.7031C13.4887 19.4298 13.7258 20.1562 13.963 20.8826Z" fill="white"/>
</svg>
