<svg width="32" height="32" viewBox="0 0 32 32" fill="none" xmlns="http://www.w3.org/2000/svg">
<rect width="32" height="32" rx="16" fill="#1CB7EB"/>
<path fill-rule="evenodd" clip-rule="evenodd" d="M18.103 9.63179C16.7062 10.1401 15.8235 11.451 15.9238 12.8857L15.9574 13.4393L15.3985 13.3715C13.3649 13.1118 11.5878 12.2307 10.079 10.7502L9.3414 10.0158L9.1515 10.5582C8.74941 11.7673 9.0065 13.0441 9.8443 13.9027C10.2913 14.3774 10.1905 14.4451 9.4198 14.1625C9.1515 14.0723 8.91688 14.0046 8.89448 14.0382C8.81661 14.1177 9.0843 15.1454 9.2966 15.5523C9.5873 16.1177 10.1793 16.6707 10.8278 16.9987L11.3755 17.2585L10.7275 17.2697C10.1019 17.2697 10.0795 17.2809 10.1467 17.5187C10.3702 18.2531 11.2529 19.0329 12.2363 19.3721L12.9291 19.6089L12.3259 19.9705C11.4321 20.491 10.3814 20.7843 9.3307 20.8062C8.82728 20.8174 8.41395 20.8627 8.41395 20.8969C8.41395 21.0094 9.7777 21.6419 10.5707 21.891C12.951 22.6254 15.7787 22.3086 17.9019 21.0547C19.4107 20.1619 20.919 18.3881 21.6235 16.6702C22.0038 15.7555 22.3835 14.083 22.3835 13.2814C22.3835 12.7614 22.4171 12.6937 23.0427 12.0723C23.4118 11.7107 23.7579 11.3155 23.8251 11.2025C23.9371 10.9875 23.9254 10.9875 23.3558 11.1795C22.4059 11.5187 22.2715 11.4734 22.7414 10.9651C23.0875 10.6035 23.5014 9.94809 23.5014 9.75609C23.5014 9.72249 23.3339 9.77849 23.1435 9.88029C22.9425 9.99339 22.4955 10.163 22.1601 10.2643L21.5569 10.4569L21.0091 10.0835C20.7073 9.88029 20.2833 9.65419 20.0593 9.58649C19.4891 9.42859 18.6171 9.45099 18.103 9.63179Z" fill="white"/>
</svg>
